<mxfile host="65bd71144e" scale="1" border="20">
    <diagram id="q6Lu0Hr8K7yvGuCoGSIY" name="Страница 1">
        <mxGraphModel dx="556" dy="618" grid="0" gridSize="10" guides="1" tooltips="1" connect="1" arrows="1" fold="1" page="1" pageScale="1" pageWidth="827" pageHeight="1169" background="#ffffff" math="0" shadow="0">
            <root>
                <mxCell id="0"/>
                <mxCell id="1" parent="0"/>
                <mxCell id="2" value="" style="rounded=0;whiteSpace=wrap;html=1;fillColor=#f5f5f5;fontColor=#333333;strokeColor=#666666;" vertex="1" parent="1">
                    <mxGeometry x="138" y="78" width="290" height="450" as="geometry"/>
                </mxCell>
                <mxCell id="3" value="Количество CPU" style="rounded=0;whiteSpace=wrap;html=1;fillColor=#647687;fontColor=#ffffff;strokeColor=#314354;" vertex="1" parent="1">
                    <mxGeometry x="226" y="117" width="114" height="33" as="geometry"/>
                </mxCell>
                <mxCell id="4" value="Количество RAM" style="rounded=0;whiteSpace=wrap;html=1;fillColor=#647687;fontColor=#ffffff;strokeColor=#314354;" vertex="1" parent="1">
                    <mxGeometry x="226" y="165" width="114" height="33" as="geometry"/>
                </mxCell>
                <mxCell id="5" value="Размер ROM" style="rounded=0;whiteSpace=wrap;html=1;fillColor=#647687;fontColor=#ffffff;strokeColor=#314354;" vertex="1" parent="1">
                    <mxGeometry x="226" y="213" width="114" height="33" as="geometry"/>
                </mxCell>
                <mxCell id="6" value="Количество ip адресов" style="rounded=0;whiteSpace=wrap;html=1;fillColor=#647687;fontColor=#ffffff;strokeColor=#314354;" vertex="1" parent="1">
                    <mxGeometry x="226" y="261" width="114" height="33" as="geometry"/>
                </mxCell>
                <mxCell id="7" value="Выбор типа ОС" style="rounded=0;whiteSpace=wrap;html=1;fillColor=#647687;fontColor=#ffffff;strokeColor=#314354;" vertex="1" parent="1">
                    <mxGeometry x="226" y="309" width="114" height="33" as="geometry"/>
                </mxCell>
                <mxCell id="8" value="Заказать" style="rounded=1;whiteSpace=wrap;html=1;fillColor=#d5e8d4;strokeColor=#82b366;gradientColor=#97d077;fontColor=#333333;" vertex="1" parent="1">
                    <mxGeometry x="230" y="448" width="106" height="31" as="geometry"/>
                </mxCell>
                <mxCell id="9" value="email" style="rounded=0;whiteSpace=wrap;html=1;fillColor=#647687;fontColor=#ffffff;strokeColor=#314354;" vertex="1" parent="1">
                    <mxGeometry x="226" y="399" width="114" height="33" as="geometry"/>
                </mxCell>
            </root>
        </mxGraphModel>
    </diagram>
</mxfile>